<svg xmlns="http://www.w3.org/2000/svg" viewBox="0 0 1637.75 65.25" role="img" aria-label="Beauty Is Still Something Simple"><path fill="#FF00FF" fill-rule="evenodd" d="M1594.25 5.00 L1594.00 6.00 L1594.50 6.50 L1595.75 6.50 L1596.75 7.00 L1598.50 7.00 L1598.75 7.25 L1600.25 7.50 L1601.00 8.00 L1601.75 9.00 L1601.75 10.75 L1602.00 11.00 L1602.00 39.00 L1601.75 39.25 L1601.75 40.75 L1602.00 41.00 L1602.00 56.75 L1601.75 57.00 L1601.75 57.75 L1599.75 59.50 L1599.25 59.75 L1595.00 59.75 L1594.25 60.25 L1594.00 61.25 L1594.75 62.00 L1633.75 62.00 L1634.25 61.75 L1635.25 60.50 L1635.25 54.00 L1635.50 53.75 L1635.50 49.50 L1635.75 49.25 L1635.75 48.00 L1635.00 47.25 L1634.50 47.25 L1633.75 48.25 L1633.75 49.25 L1633.00 50.50 L1632.75 51.75 L1631.00 55.00 L1629.00 57.00 L1627.50 57.75 L1626.25 58.75 L1624.75 58.75 L1624.50 59.00 L1619.25 59.00 L1619.00 58.75 L1617.25 58.75 L1617.00 59.00 L1613.25 59.00 L1613.00 58.75 L1611.50 58.75 L1609.75 57.50 L1609.25 56.25 L1609.25 54.50 L1609.00 54.25 L1609.00 34.25 L1610.00 33.50 L1621.75 33.50 L1623.25 34.25 L1624.00 34.25 L1625.00 34.75 L1626.75 36.50 L1627.00 38.00 L1627.75 39.75 L1627.75 40.75 L1628.25 41.25 L1629.00 41.25 L1629.50 40.50 L1629.50 25.00 L1629.00 24.25 L1628.25 24.25 L1627.50 24.75 L1626.75 28.25 L1625.25 29.75 L1623.75 30.00 L1622.50 30.75 L1609.75 30.75 L1609.00 30.00 L1609.00 12.25 L1609.25 12.00 L1609.25 10.50 L1609.50 10.25 L1609.50 9.75 L1610.25 8.75 L1611.25 8.25 L1611.75 8.25 L1613.00 7.50 L1623.50 7.50 L1624.75 8.25 L1626.25 8.50 L1627.25 9.50 L1627.50 9.50 L1629.75 12.00 L1629.75 12.50 L1630.75 14.50 L1631.00 17.25 L1632.00 18.00 L1632.50 17.75 L1633.00 17.00 L1633.00 6.00 L1632.00 4.75 L1595.00 4.75 L1594.75 5.00 Z M1542.25 5.25 L1542.25 6.00 L1542.75 6.50 L1543.75 6.50 L1544.75 7.00 L1546.50 7.00 L1546.75 7.25 L1547.50 7.25 L1548.75 7.75 L1549.50 8.50 L1549.75 9.75 L1550.00 10.00 L1550.00 56.75 L1549.75 57.00 L1549.50 58.25 L1547.25 59.75 L1543.00 59.75 L1542.25 60.50 L1542.50 61.75 L1543.00 62.00 L1585.50 62.00 L1586.50 61.50 L1587.00 60.75 L1587.25 53.25 L1587.50 53.00 L1587.50 47.50 L1587.00 47.00 L1586.25 47.00 L1585.75 47.75 L1585.75 48.75 L1585.00 50.25 L1584.75 51.50 L1583.75 53.50 L1582.50 55.25 L1581.00 56.75 L1577.50 58.75 L1576.00 58.75 L1575.75 59.00 L1571.50 59.00 L1571.25 58.75 L1570.25 58.75 L1570.00 59.00 L1561.50 59.00 L1561.25 58.75 L1559.50 58.75 L1557.50 57.25 L1557.50 56.50 L1557.25 56.25 L1557.25 34.50 L1557.50 34.25 L1557.25 33.75 L1557.25 10.00 L1557.50 9.75 L1557.75 8.50 L1558.50 7.75 L1559.75 7.25 L1560.50 7.25 L1560.75 7.00 L1562.75 7.00 L1563.75 6.50 L1564.75 6.50 L1565.25 6.00 L1565.25 5.25 L1564.50 4.75 L1556.75 4.75 L1556.50 5.00 L1543.00 4.75 Z M1491.50 4.75 L1491.00 5.00 L1490.75 5.50 L1490.75 6.00 L1491.25 6.50 L1492.50 6.50 L1493.50 7.00 L1495.00 7.00 L1495.25 7.25 L1496.75 7.50 L1497.50 8.00 L1498.75 10.00 L1498.75 56.50 L1498.00 58.00 L1496.75 59.25 L1495.75 59.75 L1491.50 59.75 L1491.00 60.00 L1490.75 61.00 L1491.50 62.00 L1497.75 62.00 L1498.75 61.50 L1507.25 61.50 L1508.00 62.00 L1512.25 62.00 L1512.50 62.25 L1513.25 62.25 L1513.50 62.00 L1516.00 62.00 L1516.50 61.25 L1516.50 60.25 L1516.00 59.75 L1510.00 59.75 L1508.75 59.00 L1507.50 58.75 L1506.50 57.75 L1505.50 55.50 L1505.50 10.50 L1505.75 10.25 L1505.75 9.75 L1506.25 9.00 L1506.50 8.00 L1507.00 7.50 L1508.50 7.25 L1508.75 7.00 L1510.50 7.00 L1511.50 6.50 L1513.25 6.50 L1514.00 7.00 L1515.25 7.00 L1515.50 7.25 L1517.50 7.50 L1518.50 8.25 L1519.00 8.25 L1520.25 9.00 L1522.75 11.25 L1524.00 13.25 L1524.75 14.00 L1525.00 15.50 L1525.75 16.75 L1525.75 18.75 L1526.00 19.00 L1526.00 24.25 L1525.75 24.50 L1525.75 26.25 L1525.00 27.25 L1524.75 28.50 L1523.50 30.75 L1522.50 31.75 L1522.50 32.00 L1520.75 33.50 L1518.00 35.00 L1517.50 35.00 L1516.50 35.75 L1514.75 35.75 L1514.50 36.00 L1510.50 36.00 L1510.25 35.75 L1509.00 35.75 L1508.75 36.00 L1508.25 36.00 L1508.00 36.25 L1508.00 37.25 L1509.25 38.25 L1514.75 38.50 L1515.00 38.25 L1517.25 38.25 L1518.75 37.50 L1520.25 37.50 L1521.75 36.75 L1523.00 36.50 L1524.50 35.50 L1525.00 35.50 L1528.75 32.75 L1531.25 29.75 L1531.75 28.50 L1532.50 27.50 L1532.50 26.75 L1533.50 24.75 L1533.50 22.00 L1534.00 21.00 L1534.00 18.75 L1533.50 17.75 L1533.50 15.50 L1533.25 15.25 L1533.25 14.25 L1532.75 13.75 L1532.50 12.75 L1531.25 10.75 L1528.50 8.00 L1525.50 6.50 L1525.00 6.00 L1524.50 6.00 L1524.25 5.75 L1523.00 5.75 L1521.75 5.00 L1521.00 5.00 L1520.75 4.75 L1504.00 4.75 L1503.75 5.00 Z M1412.25 5.25 L1412.25 6.00 L1412.75 6.50 L1413.25 6.50 L1414.25 7.00 L1415.00 7.00 L1415.25 7.25 L1416.00 7.25 L1418.25 8.50 L1420.00 10.50 L1420.00 13.75 L1419.75 14.00 L1419.75 37.50 L1419.25 38.50 L1419.25 50.00 L1419.00 50.25 L1419.00 54.00 L1418.75 54.25 L1418.75 55.50 L1417.50 58.00 L1417.00 58.50 L1414.75 59.75 L1412.50 59.75 L1412.00 60.00 L1411.75 61.25 L1412.25 62.00 L1417.25 62.00 L1418.00 61.50 L1423.50 61.50 L1424.50 62.00 L1429.75 62.00 L1430.25 61.50 L1430.25 60.25 L1430.00 60.00 L1429.50 60.00 L1429.25 59.75 L1426.75 59.75 L1424.75 58.75 L1423.75 57.75 L1423.25 57.00 L1423.25 56.50 L1422.50 55.50 L1422.50 29.75 L1423.00 28.75 L1423.00 18.75 L1423.50 18.00 L1424.75 19.00 L1424.75 19.50 L1425.75 21.00 L1426.00 22.25 L1428.75 27.50 L1428.75 28.00 L1431.00 32.25 L1431.00 32.75 L1431.50 33.25 L1431.75 34.25 L1432.75 35.75 L1432.75 36.25 L1433.25 37.25 L1433.75 37.75 L1433.75 38.50 L1434.50 39.50 L1434.75 40.50 L1435.50 41.50 L1435.75 42.50 L1436.75 44.00 L1436.75 44.75 L1441.75 54.75 L1441.75 55.25 L1442.75 56.75 L1443.00 58.00 L1443.50 58.50 L1444.00 60.00 L1445.25 61.50 L1446.75 61.50 L1447.25 61.00 L1447.50 60.00 L1448.50 58.50 L1448.50 58.00 L1450.25 54.50 L1450.75 52.75 L1453.50 47.00 L1453.50 46.50 L1454.25 45.25 L1454.25 44.75 L1454.75 43.75 L1455.25 43.50 L1455.50 43.00 L1455.50 42.00 L1457.50 38.00 L1457.50 37.50 L1458.50 35.50 L1458.50 35.00 L1459.25 34.00 L1459.50 32.75 L1461.25 29.25 L1461.50 28.00 L1462.25 27.00 L1462.50 26.00 L1463.25 24.75 L1463.25 24.25 L1464.50 22.00 L1465.25 19.50 L1465.75 18.50 L1466.75 18.00 L1467.25 18.50 L1467.25 22.00 L1467.75 23.00 L1467.75 34.75 L1468.00 35.00 L1468.25 47.00 L1468.75 48.00 L1468.75 57.25 L1468.50 57.75 L1466.50 59.50 L1466.00 59.50 L1465.75 59.75 L1462.25 59.75 L1461.75 60.25 L1461.75 61.25 L1462.25 62.00 L1468.00 62.00 L1469.00 61.50 L1475.75 61.50 L1476.75 62.00 L1483.00 62.00 L1483.50 61.25 L1483.50 60.25 L1483.00 59.75 L1478.75 59.75 L1477.25 59.00 L1476.50 58.25 L1476.50 56.75 L1475.50 55.25 L1475.50 46.75 L1475.25 46.50 L1475.00 35.50 L1474.50 34.50 L1474.50 23.75 L1474.25 23.50 L1474.25 17.75 L1474.00 17.50 L1474.00 12.75 L1473.75 12.50 L1473.75 11.50 L1474.00 11.25 L1474.25 9.50 L1475.25 8.25 L1476.50 7.50 L1478.50 7.25 L1478.75 7.00 L1480.00 7.00 L1481.00 6.50 L1482.00 6.50 L1482.50 6.00 L1482.25 5.00 L1481.75 4.75 L1469.75 4.75 L1467.75 6.50 L1467.50 7.50 L1466.75 8.75 L1466.75 9.25 L1465.75 10.75 L1465.75 11.50 L1465.00 12.50 L1465.00 13.00 L1463.00 17.00 L1462.75 18.25 L1462.00 19.25 L1462.00 19.75 L1460.75 22.00 L1460.50 23.25 L1460.00 23.75 L1459.75 25.25 L1458.75 26.75 L1458.75 27.25 L1455.75 33.50 L1455.75 34.25 L1454.75 35.75 L1454.75 36.25 L1451.75 42.50 L1451.75 43.25 L1451.00 44.25 L1450.75 45.25 L1449.75 47.00 L1449.75 47.50 L1448.75 49.25 L1448.75 49.75 L1448.25 50.25 L1447.50 49.75 L1446.50 47.75 L1446.50 47.25 L1443.25 41.00 L1443.25 40.50 L1442.75 40.00 L1442.50 39.00 L1441.50 37.50 L1441.50 37.00 L1441.00 36.00 L1440.50 35.50 L1440.50 35.00 L1439.50 33.25 L1439.50 32.75 L1438.75 31.75 L1438.50 30.75 L1437.75 29.75 L1437.50 28.75 L1436.50 27.25 L1436.25 26.00 L1432.50 18.75 L1432.50 18.00 L1431.75 17.00 L1429.25 12.00 L1429.25 11.50 L1428.50 10.50 L1428.50 9.75 L1427.75 8.75 L1426.50 6.25 L1424.75 4.75 L1413.00 4.75 Z M1380.25 4.75 L1379.75 5.25 L1379.75 6.00 L1380.25 6.50 L1381.25 6.50 L1382.25 7.00 L1383.50 7.00 L1383.75 7.25 L1385.00 7.25 L1386.25 7.75 L1387.00 8.75 L1387.00 9.25 L1387.75 10.75 L1387.75 56.25 L1387.00 57.50 L1387.00 58.00 L1386.00 59.00 L1384.50 59.75 L1380.25 59.75 L1379.75 60.25 L1379.75 61.25 L1380.25 62.00 L1386.50 62.00 L1387.50 61.50 L1394.75 61.50 L1395.75 62.00 L1402.00 62.00 L1402.50 61.25 L1402.25 60.00 L1401.75 59.75 L1397.75 59.75 L1396.25 59.00 L1395.25 58.00 L1395.25 57.50 L1394.50 56.25 L1394.50 10.75 L1395.00 10.00 L1395.00 9.50 L1395.50 8.50 L1396.25 7.75 L1397.50 7.25 L1398.50 7.25 L1398.75 7.00 L1400.00 7.00 L1401.00 6.50 L1402.00 6.50 L1402.50 6.00 L1402.50 5.25 L1402.00 4.75 L1394.75 4.75 L1394.50 5.00 Z M1171.50 5.00 L1171.00 5.75 L1171.25 6.25 L1173.75 7.25 L1175.50 7.50 L1177.75 9.00 L1178.75 10.00 L1178.75 54.25 L1178.00 55.50 L1177.75 57.25 L1176.25 58.75 L1175.50 59.00 L1174.50 59.75 L1172.00 59.75 L1171.25 60.50 L1171.50 61.50 L1172.25 62.00 L1177.00 62.00 L1177.75 61.50 L1182.75 61.50 L1183.75 62.00 L1188.25 62.00 L1189.25 61.25 L1189.25 60.75 L1188.75 60.00 L1188.25 59.75 L1186.00 59.75 L1184.00 58.75 L1183.25 58.00 L1182.50 56.75 L1182.25 55.00 L1182.00 54.75 L1182.00 53.75 L1181.50 52.75 L1181.50 14.50 L1182.00 14.00 L1182.50 14.00 L1187.00 19.25 L1188.00 20.75 L1191.00 24.00 L1192.00 25.50 L1193.75 27.25 L1194.75 28.75 L1197.75 32.00 L1199.75 34.75 L1201.75 36.75 L1203.75 39.50 L1206.75 42.75 L1209.00 45.75 L1210.75 47.50 L1213.00 50.50 L1214.75 52.25 L1214.75 52.50 L1218.00 56.25 L1218.00 56.50 L1219.75 58.25 L1220.75 59.75 L1224.00 63.25 L1225.00 63.25 L1225.50 62.75 L1225.50 13.75 L1226.00 12.75 L1226.00 12.00 L1226.25 11.75 L1226.25 11.00 L1226.50 10.75 L1226.75 9.50 L1228.75 7.50 L1230.50 7.50 L1232.00 6.50 L1232.75 6.50 L1233.25 6.00 L1233.25 5.25 L1232.50 4.75 L1226.75 4.75 L1226.50 5.00 L1216.25 4.75 L1215.75 5.25 L1216.00 6.50 L1219.75 7.50 L1221.50 9.25 L1222.00 10.50 L1222.25 12.00 L1222.75 12.75 L1222.75 49.50 L1222.25 50.00 L1221.75 50.00 L1218.50 46.00 L1218.50 45.75 L1214.50 41.25 L1213.25 39.25 L1209.50 35.25 L1209.50 35.00 L1206.25 31.25 L1205.25 29.75 L1203.50 28.00 L1203.50 27.75 L1200.25 24.00 L1199.25 22.50 L1197.50 20.75 L1194.50 16.75 L1190.50 12.25 L1188.50 9.50 L1187.25 8.25 L1185.00 5.00 L1184.50 4.75 L1172.00 4.75 Z M1139.50 4.75 L1139.00 5.00 L1138.75 5.50 L1138.75 6.00 L1139.25 6.50 L1140.75 6.50 L1141.75 7.00 L1143.50 7.00 L1143.75 7.25 L1144.50 7.25 L1144.75 7.50 L1145.25 7.50 L1146.75 9.00 L1146.75 10.50 L1147.00 10.75 L1147.00 12.25 L1146.75 12.50 L1146.75 13.50 L1147.00 13.75 L1147.00 55.75 L1146.75 56.00 L1146.75 57.50 L1145.75 58.75 L1143.75 59.75 L1139.75 59.75 L1139.00 60.25 L1139.00 61.50 L1139.50 62.00 L1146.25 62.00 L1147.00 61.50 L1154.50 61.50 L1155.25 62.00 L1161.25 62.00 L1162.00 61.50 L1162.00 60.50 L1161.75 60.00 L1161.25 59.75 L1157.00 59.75 L1154.75 58.25 L1154.50 57.00 L1154.25 56.75 L1154.25 55.00 L1154.00 54.75 L1154.00 47.25 L1154.25 47.00 L1154.25 45.50 L1154.00 45.25 L1154.00 11.75 L1154.25 11.50 L1154.25 9.75 L1154.50 9.50 L1154.50 9.00 L1155.50 7.75 L1156.75 7.25 L1157.50 7.25 L1157.75 7.00 L1159.25 7.00 L1160.50 6.50 L1162.00 6.50 L1162.50 5.75 L1161.25 4.75 L1154.00 4.75 L1153.75 5.00 Z M1066.25 5.00 L1066.00 6.00 L1066.50 6.50 L1067.75 6.50 L1068.75 7.00 L1070.50 7.00 L1070.75 7.25 L1071.50 7.25 L1072.75 7.75 L1073.75 9.00 L1073.75 9.50 L1074.00 9.75 L1074.00 11.25 L1074.25 11.50 L1074.25 13.50 L1074.00 13.75 L1074.25 14.25 L1074.25 41.75 L1074.00 42.00 L1074.00 43.25 L1074.25 43.50 L1074.25 49.50 L1074.00 49.75 L1074.00 50.50 L1074.25 50.75 L1074.25 55.00 L1073.75 56.25 L1073.75 57.75 L1073.25 58.50 L1071.25 59.75 L1067.00 59.75 L1066.75 60.00 L1066.25 60.00 L1066.00 61.25 L1066.75 62.00 L1073.00 62.00 L1073.75 61.50 L1081.50 61.50 L1082.50 62.00 L1088.50 62.00 L1089.25 61.50 L1089.25 60.50 L1089.00 60.00 L1088.50 60.00 L1088.25 59.75 L1084.00 59.75 L1082.00 58.50 L1081.50 57.75 L1081.50 57.00 L1081.25 56.75 L1081.25 34.25 L1082.00 33.50 L1114.50 33.50 L1115.25 34.25 L1115.25 54.50 L1115.00 54.75 L1114.75 57.75 L1114.00 58.75 L1113.25 59.00 L1112.25 59.75 L1107.75 59.75 L1107.25 60.00 L1106.75 60.75 L1107.00 61.50 L1107.50 62.00 L1113.75 62.00 L1114.75 61.50 L1122.50 61.50 L1123.25 62.00 L1129.25 62.00 L1130.25 61.25 L1130.00 60.00 L1129.50 60.00 L1129.25 59.75 L1125.00 59.75 L1124.00 59.00 L1123.25 58.75 L1122.50 57.75 L1122.50 57.00 L1122.25 56.75 L1122.25 55.00 L1122.00 54.75 L1122.00 32.00 L1122.25 31.75 L1122.25 30.25 L1122.00 30.00 L1122.00 11.75 L1122.25 11.50 L1122.25 9.75 L1122.75 8.50 L1123.50 7.75 L1124.50 7.25 L1127.25 7.00 L1128.50 6.50 L1129.75 6.50 L1130.25 6.00 L1130.25 5.25 L1129.50 4.75 L1122.50 4.75 L1122.25 5.00 L1121.00 5.00 L1120.75 4.75 L1119.50 4.75 L1119.25 5.00 L1115.50 5.00 L1115.25 4.75 L1107.50 4.75 L1106.75 5.75 L1107.25 6.50 L1108.75 6.50 L1109.75 7.00 L1111.50 7.00 L1111.75 7.25 L1112.50 7.25 L1113.75 7.75 L1114.75 9.00 L1114.75 9.75 L1115.00 10.00 L1115.00 11.75 L1115.25 12.00 L1115.25 30.00 L1114.50 30.75 L1082.00 30.75 L1081.25 30.00 L1081.25 10.25 L1081.50 10.00 L1081.50 9.00 L1083.00 7.50 L1086.00 7.50 L1086.25 7.25 L1086.75 7.25 L1087.75 6.50 L1088.75 6.50 L1089.25 6.25 L1089.25 5.25 L1088.50 4.75 L1080.75 4.75 L1080.50 5.00 L1067.00 4.75 L1066.75 5.00 Z M955.00 5.00 L954.75 6.00 L955.25 6.50 L956.50 6.50 L957.50 7.00 L959.00 7.00 L959.25 7.25 L960.75 7.50 L961.75 8.25 L962.75 9.75 L962.75 56.75 L962.25 57.75 L960.75 59.25 L959.75 59.75 L955.50 59.75 L955.00 60.00 L954.75 61.25 L955.50 62.00 L994.25 62.00 L994.75 61.75 L995.50 61.00 L995.50 56.75 L996.00 55.75 L996.00 53.00 L996.25 52.75 L996.25 50.00 L996.50 49.75 L996.50 48.25 L996.00 47.50 L995.00 47.50 L994.25 48.25 L994.00 50.00 L993.75 50.25 L993.75 51.25 L993.00 52.25 L992.50 53.75 L990.75 55.75 L990.75 56.00 L989.00 57.50 L986.50 58.75 L985.50 58.75 L985.25 59.00 L980.25 59.00 L980.00 58.75 L978.50 58.75 L978.25 59.00 L978.00 58.75 L973.75 59.00 L973.50 58.75 L972.00 58.75 L970.50 57.25 L970.00 56.00 L969.50 55.50 L969.50 34.25 L970.25 33.50 L982.50 33.50 L983.25 34.00 L984.75 34.25 L985.75 34.75 L987.75 37.00 L988.00 40.50 L988.75 41.25 L989.50 41.25 L990.00 41.00 L990.25 40.50 L990.25 34.00 L990.00 33.75 L990.25 25.00 L989.50 24.25 L988.50 24.25 L988.00 24.75 L987.75 27.50 L987.25 28.25 L986.00 29.50 L985.00 30.00 L984.50 30.00 L983.25 30.75 L970.00 30.75 L969.50 30.25 L969.50 11.50 L970.25 10.00 L970.25 9.50 L971.00 8.50 L972.25 8.25 L973.75 7.50 L983.75 7.50 L985.25 8.25 L986.00 8.25 L988.25 9.50 L989.75 11.00 L989.75 12.00 L990.00 12.50 L990.75 13.00 L991.00 14.25 L991.75 15.75 L991.75 17.25 L992.00 17.75 L992.75 18.00 L993.25 17.75 L993.50 17.25 L993.50 5.50 L992.75 4.75 L955.50 4.75 Z M876.25 5.25 L876.25 6.00 L876.75 6.50 L877.25 6.50 L878.75 7.25 L880.50 7.50 L882.25 8.50 L883.75 10.00 L883.75 34.50 L883.25 35.50 L883.25 41.25 L883.00 41.50 L883.00 43.75 L883.25 44.00 L883.00 44.50 L883.00 45.75 L883.25 46.00 L883.25 46.50 L883.00 46.75 L883.00 53.25 L882.75 53.50 L882.75 55.50 L881.75 57.50 L880.50 58.75 L878.50 59.75 L876.25 59.75 L875.75 60.25 L875.75 61.25 L876.25 62.00 L881.25 62.00 L882.00 61.50 L887.50 61.50 L888.50 62.00 L893.50 62.00 L894.00 61.75 L894.25 61.25 L894.25 60.25 L893.50 59.75 L890.75 59.75 L888.25 58.50 L887.75 58.00 L886.50 55.50 L886.50 53.25 L886.25 53.00 L886.25 50.50 L886.50 50.25 L886.50 26.50 L887.00 25.50 L887.00 19.00 L887.50 18.50 L888.25 18.50 L888.75 19.00 L889.00 20.25 L894.00 30.25 L894.00 30.75 L894.75 32.00 L894.75 32.50 L895.50 33.50 L896.75 36.00 L897.00 37.25 L897.75 38.00 L897.75 38.50 L898.75 40.00 L899.00 41.25 L901.75 46.50 L901.75 47.00 L906.75 57.00 L906.75 57.50 L907.75 59.00 L908.00 60.00 L909.25 61.50 L910.50 61.50 L911.25 61.00 L911.50 60.00 L912.50 58.25 L912.50 57.75 L913.50 56.00 L913.50 55.50 L914.25 54.50 L914.50 53.00 L915.50 51.50 L915.50 51.00 L916.25 49.75 L916.25 49.25 L918.25 45.25 L918.50 44.00 L919.50 42.25 L919.50 41.75 L920.50 40.00 L920.50 39.50 L921.25 38.50 L921.50 37.25 L922.50 36.00 L922.50 35.00 L924.50 31.00 L924.50 30.50 L925.25 29.25 L925.50 28.00 L926.25 27.00 L926.50 25.75 L928.50 21.75 L928.50 21.00 L929.25 20.00 L929.50 18.75 L930.25 18.00 L930.75 18.00 L931.25 18.50 L931.25 23.50 L931.75 24.50 L931.75 36.25 L932.00 36.50 L932.25 48.50 L932.75 49.50 L932.75 56.75 L932.00 58.25 L930.50 59.50 L930.00 59.50 L929.75 59.75 L926.25 59.75 L925.75 60.25 L925.75 61.25 L926.25 62.00 L932.00 62.00 L933.00 61.50 L939.75 61.50 L940.75 62.25 L942.50 62.25 L942.75 62.00 L947.00 62.00 L947.50 61.25 L947.50 60.25 L946.75 59.75 L942.75 59.75 L941.25 59.00 L940.50 58.25 L939.50 56.25 L939.50 48.00 L939.25 47.75 L939.00 37.00 L938.50 36.25 L938.50 25.50 L938.25 25.25 L938.25 19.50 L938.00 19.25 L938.00 14.25 L937.50 13.25 L937.50 11.50 L938.50 9.00 L940.50 7.50 L941.50 7.50 L942.75 7.00 L944.25 7.00 L945.00 6.50 L946.00 6.50 L946.50 5.75 L945.75 4.75 L933.75 4.75 L931.75 6.25 L931.75 6.75 L930.75 8.50 L930.75 9.25 L929.75 10.75 L929.75 11.25 L926.75 17.50 L926.75 18.25 L925.75 19.75 L925.75 20.25 L922.75 26.50 L922.75 27.25 L921.75 28.75 L921.75 29.25 L919.00 35.00 L918.75 36.25 L918.00 37.25 L917.75 38.25 L917.00 39.50 L917.00 40.00 L915.75 42.25 L915.75 42.75 L915.00 44.00 L914.75 45.25 L913.75 46.50 L913.75 47.50 L913.25 48.00 L913.00 49.00 L912.25 50.00 L911.25 49.25 L908.50 43.75 L908.50 43.25 L905.25 37.00 L905.25 36.50 L904.75 36.00 L904.50 35.00 L903.50 33.50 L903.50 33.00 L903.00 32.00 L902.50 31.50 L902.50 31.00 L901.50 29.25 L901.50 28.75 L900.75 27.75 L900.50 26.75 L899.75 25.75 L899.50 24.75 L898.50 23.25 L898.25 22.00 L894.50 14.75 L894.50 14.25 L890.25 6.00 L888.75 4.75 L877.00 4.75 Z M681.00 4.75 L680.25 5.50 L680.25 6.00 L681.00 6.50 L682.25 6.50 L683.00 7.00 L685.75 7.25 L686.75 7.75 L687.75 9.00 L688.00 10.75 L688.25 11.00 L688.25 55.50 L688.00 55.75 L688.00 57.00 L687.25 58.50 L685.25 59.75 L681.00 59.75 L680.50 60.00 L680.25 61.25 L681.00 62.00 L723.75 62.00 L724.25 61.75 L725.25 60.75 L725.25 60.00 L725.50 59.75 L725.25 55.25 L725.50 55.00 L725.50 49.75 L726.00 49.00 L726.00 47.75 L725.75 47.25 L725.25 47.00 L724.50 47.00 L723.75 48.00 L723.75 49.25 L723.00 50.50 L722.75 51.75 L721.75 53.75 L720.75 54.75 L720.75 55.00 L718.00 57.50 L715.50 58.75 L713.75 58.75 L713.50 59.00 L699.75 59.00 L699.50 58.75 L697.50 58.75 L695.75 57.25 L695.50 56.75 L695.50 55.25 L695.25 55.00 L695.25 23.00 L695.50 22.75 L695.50 19.75 L695.25 19.50 L695.25 11.25 L695.50 11.00 L695.50 9.00 L697.00 7.50 L698.75 7.25 L699.00 7.00 L700.50 7.00 L701.50 6.50 L702.75 6.50 L703.25 6.25 L703.25 5.25 L702.50 4.75 L695.00 4.75 L694.75 5.00 Z M629.25 5.00 L629.00 6.00 L629.50 6.50 L630.75 6.50 L631.75 7.00 L633.50 7.00 L633.75 7.25 L635.25 7.50 L636.00 8.00 L636.75 9.00 L636.75 10.25 L637.00 10.50 L637.00 56.00 L636.75 56.25 L636.75 57.50 L636.50 58.00 L634.75 59.50 L634.25 59.75 L630.00 59.75 L629.25 60.25 L629.00 61.25 L629.75 62.00 L672.50 62.00 L673.00 61.75 L674.00 60.50 L674.00 56.00 L674.25 55.75 L674.25 52.75 L674.50 52.50 L674.50 47.50 L674.00 47.00 L673.25 47.00 L673.00 47.25 L672.75 48.50 L672.00 49.75 L671.75 51.50 L671.00 52.50 L670.50 53.75 L668.75 55.75 L668.75 56.00 L666.25 57.75 L665.25 57.75 L664.25 58.75 L662.50 58.75 L662.25 59.00 L648.25 59.00 L648.00 58.75 L646.00 58.75 L644.50 57.25 L644.50 56.75 L644.25 56.50 L644.25 54.50 L644.00 54.25 L644.00 12.00 L644.25 11.75 L644.25 9.75 L644.75 8.50 L645.50 7.75 L646.50 7.25 L649.25 7.00 L650.00 6.50 L651.50 6.50 L652.00 6.25 L652.25 5.75 L652.00 5.25 L651.25 4.75 L643.75 4.75 L643.50 5.00 L629.75 4.75 Z M598.00 4.75 L597.25 5.50 L597.25 6.00 L598.00 6.50 L599.25 6.50 L600.00 7.00 L602.75 7.25 L604.00 7.75 L605.00 9.25 L604.75 10.50 L605.75 12.00 L605.75 54.50 L605.25 55.50 L605.00 57.75 L604.25 58.75 L603.50 59.00 L602.50 59.75 L598.25 59.75 L597.50 60.25 L597.25 61.00 L598.00 62.00 L604.25 62.00 L605.00 61.50 L612.50 61.50 L613.50 62.00 L619.75 62.00 L620.25 61.75 L620.50 61.25 L620.25 60.00 L619.75 59.75 L615.50 59.75 L614.50 59.25 L613.00 57.75 L612.50 56.75 L612.50 10.00 L614.00 7.75 L615.25 7.25 L616.00 7.25 L616.25 7.00 L617.75 7.00 L618.75 6.50 L620.00 6.50 L620.50 6.00 L620.50 5.50 L620.25 5.00 L619.75 4.75 L612.50 4.75 L612.25 5.00 L611.75 4.75 L609.00 4.75 L608.75 5.00 L605.75 5.00 L605.50 4.75 Z M386.25 4.75 L385.75 5.25 L385.75 6.00 L386.25 6.50 L387.50 6.50 L389.00 7.25 L391.25 7.25 L392.25 7.75 L393.00 8.75 L393.75 10.50 L393.75 56.50 L393.00 58.00 L392.00 59.00 L390.50 59.75 L386.25 59.75 L385.75 60.25 L385.75 61.25 L386.25 62.00 L392.50 62.00 L393.50 61.50 L400.75 61.50 L401.75 62.00 L408.00 62.00 L408.50 61.50 L408.50 60.25 L407.75 59.75 L403.75 59.75 L402.25 59.00 L401.25 58.00 L401.25 57.50 L400.50 55.75 L400.50 10.75 L401.25 9.50 L401.25 9.00 L402.25 7.75 L403.50 7.25 L404.25 7.25 L404.50 7.00 L406.00 7.00 L407.00 6.50 L408.00 6.50 L408.50 6.00 L408.50 5.25 L408.00 4.75 L400.50 4.75 L400.25 5.00 Z M299.25 5.00 L299.00 6.00 L299.50 6.50 L300.25 6.50 L301.75 7.25 L303.00 7.25 L303.25 7.50 L303.75 7.50 L305.25 8.50 L308.00 11.25 L324.75 35.50 L324.75 56.50 L324.00 58.00 L323.00 59.00 L321.50 59.75 L317.50 59.75 L317.00 60.00 L316.75 60.50 L317.00 61.75 L317.25 62.00 L319.25 62.00 L319.50 62.25 L323.50 62.00 L324.50 61.50 L331.75 61.50 L332.75 62.00 L339.00 62.00 L339.50 61.25 L339.50 60.25 L338.75 59.75 L334.75 59.75 L334.50 59.50 L334.00 59.50 L332.25 58.00 L332.25 57.50 L331.75 56.75 L331.75 56.00 L331.50 55.75 L331.50 34.00 L332.25 33.25 L333.50 31.00 L334.25 30.25 L335.50 28.00 L336.25 27.25 L336.50 26.50 L344.00 15.25 L346.25 12.25 L348.50 10.00 L349.50 9.50 L351.00 8.25 L352.50 7.50 L355.00 7.00 L356.25 6.50 L356.50 5.25 L356.00 4.75 L350.25 4.75 L350.00 5.00 L345.75 5.00 L345.50 4.75 L338.25 4.75 L337.75 5.25 L338.00 6.50 L341.00 7.25 L342.50 8.25 L342.75 8.75 L342.75 10.50 L342.50 10.75 L342.50 11.25 L342.00 11.75 L342.00 12.25 L339.75 16.25 L339.00 17.00 L337.75 19.25 L336.75 20.25 L335.75 22.25 L335.00 23.00 L330.50 30.00 L329.75 30.00 L328.75 28.75 L328.25 27.50 L325.50 24.25 L325.25 23.50 L323.50 21.25 L322.00 18.75 L321.25 18.00 L320.25 16.25 L319.50 15.50 L319.25 14.75 L318.50 14.00 L317.50 12.25 L316.50 11.25 L315.25 9.00 L315.25 8.00 L316.00 7.25 L319.75 6.25 L320.00 5.50 L319.25 4.75 L311.25 4.75 L311.00 5.00 L299.75 4.75 Z M169.00 5.00 L168.75 6.00 L169.25 6.50 L170.50 6.50 L171.50 7.00 L173.25 7.00 L173.50 7.25 L175.25 7.50 L176.75 9.50 L176.75 46.25 L177.00 46.50 L177.00 48.50 L177.75 49.75 L177.75 51.00 L179.00 53.75 L180.75 56.25 L182.75 58.25 L186.00 60.50 L186.50 60.50 L188.00 61.50 L188.75 61.50 L191.00 62.50 L193.50 62.50 L194.25 63.00 L201.00 63.00 L201.75 62.50 L204.25 62.50 L204.50 62.25 L205.25 62.25 L206.75 61.50 L207.50 61.50 L209.50 60.50 L210.00 60.50 L212.50 59.25 L217.50 55.75 L218.75 54.50 L219.25 54.50 L219.75 55.00 L219.75 61.00 L220.00 61.50 L220.75 62.00 L233.75 62.00 L234.25 61.75 L234.50 61.25 L234.25 60.00 L233.75 59.75 L229.50 59.75 L229.25 59.50 L228.75 59.50 L228.00 59.00 L226.50 57.25 L226.50 9.50 L228.00 7.50 L229.75 7.25 L230.00 7.00 L231.75 7.00 L232.75 6.50 L234.00 6.50 L234.50 6.00 L234.25 5.00 L233.75 4.75 L226.00 4.75 L225.75 5.00 L212.25 4.75 L211.75 5.25 L211.75 6.00 L212.25 6.50 L213.25 6.50 L214.25 7.00 L215.75 7.00 L216.00 7.25 L216.75 7.25 L218.00 7.75 L219.00 9.00 L219.00 9.50 L219.75 10.75 L219.75 50.25 L218.50 51.75 L218.25 51.75 L217.00 53.00 L214.00 55.00 L213.25 55.75 L212.50 55.75 L211.25 56.75 L209.25 57.75 L207.75 58.00 L206.50 58.75 L202.25 59.25 L201.25 59.75 L199.00 59.75 L198.00 59.25 L195.50 59.00 L195.25 58.75 L194.00 58.75 L193.00 58.00 L192.50 58.00 L191.50 57.50 L189.00 55.75 L187.50 54.25 L187.25 53.50 L185.50 51.25 L185.25 49.75 L184.50 48.50 L184.50 47.25 L184.25 47.00 L184.25 45.75 L184.00 45.50 L184.00 44.00 L183.50 43.25 L183.50 11.75 L183.75 11.50 L184.00 10.00 L184.50 8.75 L185.75 7.50 L187.50 7.25 L187.75 7.00 L189.25 7.00 L190.00 6.50 L191.00 6.50 L191.50 6.00 L191.50 5.25 L191.00 4.75 L183.75 4.75 L183.50 5.00 L169.50 4.75 Z M56.25 4.75 L55.75 5.25 L55.75 6.00 L56.25 6.50 L57.25 6.50 L58.25 7.00 L59.75 7.00 L60.00 7.25 L61.75 7.50 L62.75 8.50 L63.75 10.75 L63.75 56.25 L62.75 58.25 L62.00 59.00 L60.50 59.75 L56.25 59.75 L55.75 60.25 L55.75 61.25 L56.25 62.00 L95.00 62.00 L96.00 61.50 L96.50 60.75 L96.50 53.75 L97.00 53.00 L97.00 51.00 L97.25 50.75 L97.25 48.75 L97.50 48.50 L97.25 48.25 L97.25 47.75 L96.50 47.25 L95.75 47.50 L95.25 48.00 L94.50 51.25 L93.25 53.75 L92.00 55.50 L89.50 57.75 L87.50 58.75 L86.25 58.75 L86.00 59.00 L84.50 59.00 L84.25 58.75 L83.50 58.75 L83.25 59.00 L74.50 59.00 L74.25 58.75 L73.00 58.75 L72.50 58.50 L70.50 56.25 L70.50 34.00 L71.00 33.50 L83.25 33.50 L84.50 34.25 L86.25 34.50 L87.75 36.00 L88.75 37.75 L88.75 39.50 L89.00 39.75 L89.25 41.00 L90.25 41.25 L91.00 40.25 L91.00 25.00 L90.75 24.50 L90.25 24.25 L89.50 24.25 L88.75 25.00 L88.75 27.25 L87.50 29.00 L86.50 29.75 L85.25 30.00 L83.75 30.75 L71.00 30.75 L70.50 30.25 L70.50 10.75 L71.25 9.25 L72.00 8.50 L74.50 7.50 L84.75 7.50 L86.25 8.25 L87.50 8.50 L89.00 9.50 L90.50 11.00 L90.75 11.75 L91.75 13.00 L92.50 16.75 L93.00 17.75 L93.75 18.00 L94.50 17.25 L94.50 6.00 L94.25 5.75 L94.25 5.25 L93.25 4.75 Z M2.25 5.25 L2.25 6.00 L2.75 6.50 L4.25 6.50 L5.00 7.00 L6.50 7.00 L6.75 7.25 L7.75 7.25 L8.75 7.75 L9.50 8.50 L10.00 9.50 L10.00 10.50 L10.25 10.75 L10.25 15.50 L9.75 16.50 L9.75 17.25 L10.25 18.25 L10.25 56.00 L10.00 56.25 L9.75 57.75 L9.00 58.75 L8.25 59.00 L7.25 59.75 L3.00 59.75 L2.25 60.25 L2.00 61.25 L2.75 62.00 L9.25 62.00 L10.00 61.50 L15.75 61.50 L16.75 62.00 L20.25 62.00 L20.50 62.25 L30.75 62.25 L32.50 61.50 L34.25 61.25 L38.25 59.25 L40.25 57.50 L40.50 57.50 L43.25 54.25 L44.50 52.00 L44.50 51.50 L45.50 49.00 L45.50 41.00 L44.75 39.50 L44.50 38.25 L43.75 37.25 L43.50 36.50 L40.50 33.25 L38.75 32.00 L37.75 31.75 L36.25 30.75 L35.00 30.50 L34.25 30.00 L32.75 29.75 L32.25 29.25 L32.75 28.50 L34.75 27.50 L38.25 24.00 L39.50 21.75 L39.50 20.75 L40.25 19.50 L40.25 14.00 L39.75 13.25 L39.25 11.25 L37.50 8.75 L35.50 7.00 L33.25 5.75 L32.50 5.75 L30.00 4.75 L15.75 4.75 L15.50 5.00 L3.00 4.75 Z M18.25 32.25 L25.00 32.25 L25.25 32.50 L27.75 32.50 L28.00 32.75 L28.50 32.75 L29.25 33.25 L30.50 33.50 L31.00 34.00 L32.25 34.50 L35.25 37.25 L36.25 38.75 L37.00 40.25 L37.00 40.75 L37.75 41.75 L38.00 44.25 L38.25 44.50 L38.00 51.25 L37.75 51.50 L37.75 52.50 L37.00 53.50 L36.75 54.50 L35.50 56.25 L33.75 57.75 L31.75 58.75 L30.25 59.00 L28.50 59.75 L22.00 59.75 L21.25 59.25 L19.00 58.75 L17.50 56.75 L17.50 55.75 L17.25 55.50 L17.25 33.25 Z M27.50 7.50 L29.25 8.50 L31.75 11.00 L32.75 13.00 L33.00 15.25 L33.25 15.50 L33.25 19.50 L33.00 19.75 L32.75 22.25 L32.00 23.25 L32.00 23.75 L31.25 25.00 L28.75 27.50 L26.25 28.75 L25.00 28.75 L24.75 29.00 L23.50 29.00 L23.25 29.25 L18.25 29.25 L17.75 29.00 L17.25 28.25 L17.25 11.00 L17.50 10.75 L17.50 9.00 L18.75 7.50 L20.00 7.00 L21.25 7.00 L22.00 6.50 L23.25 6.50 L24.25 7.00 L25.25 7.00 L26.50 7.50 Z M1358.50 4.00 L1357.00 4.00 L1356.75 3.75 L1349.75 3.75 L1349.50 4.00 L1348.50 4.00 L1348.25 4.25 L1347.75 4.25 L1346.75 4.75 L1346.00 4.75 L1344.50 5.50 L1344.00 5.50 L1341.00 7.25 L1337.75 10.50 L1337.50 11.25 L1336.75 12.25 L1336.50 13.50 L1336.00 14.25 L1336.00 15.25 L1335.75 15.50 L1335.75 21.00 L1336.00 21.25 L1336.00 22.25 L1336.50 23.00 L1336.75 24.25 L1337.75 26.00 L1341.00 29.50 L1341.25 29.50 L1343.25 31.25 L1347.75 34.25 L1348.50 34.50 L1349.00 35.00 L1350.25 35.50 L1351.50 36.50 L1353.50 37.50 L1354.25 38.25 L1356.25 39.50 L1359.75 43.25 L1360.75 44.75 L1361.00 46.00 L1361.75 47.50 L1361.75 49.75 L1362.00 50.00 L1361.75 53.75 L1360.75 55.75 L1360.75 56.25 L1358.25 58.75 L1356.25 59.75 L1354.75 60.00 L1353.25 60.75 L1349.75 60.75 L1349.00 60.25 L1346.50 59.75 L1345.00 59.00 L1341.50 56.25 L1339.25 53.25 L1337.50 49.75 L1337.25 48.50 L1336.50 47.25 L1336.25 45.25 L1335.50 44.75 L1334.50 44.75 L1334.00 45.25 L1334.00 46.75 L1334.25 47.00 L1334.25 49.00 L1334.75 49.75 L1334.75 54.25 L1335.00 54.50 L1335.00 57.25 L1335.25 57.50 L1335.25 58.25 L1335.75 59.25 L1336.50 60.00 L1339.00 61.25 L1340.50 61.50 L1342.00 62.25 L1342.75 62.25 L1343.00 62.50 L1345.50 62.50 L1346.25 63.00 L1353.00 63.00 L1354.00 62.50 L1356.00 62.50 L1356.25 62.25 L1357.00 62.25 L1357.75 61.75 L1359.00 61.50 L1363.00 59.25 L1366.00 56.25 L1367.50 53.75 L1367.50 53.00 L1368.25 52.00 L1368.25 51.50 L1368.50 51.25 L1368.50 43.25 L1368.25 43.00 L1368.25 42.25 L1367.75 41.75 L1367.50 40.75 L1366.25 38.75 L1361.50 34.25 L1359.25 32.75 L1358.50 32.50 L1357.75 31.75 L1353.50 29.50 L1352.25 28.50 L1351.50 28.25 L1347.75 25.75 L1345.50 23.75 L1345.50 23.50 L1343.50 21.25 L1343.25 20.25 L1342.50 19.25 L1342.50 18.00 L1342.25 17.75 L1342.25 13.75 L1342.50 13.50 L1342.50 12.50 L1343.25 10.75 L1344.25 9.25 L1345.25 8.25 L1348.00 6.50 L1349.00 6.50 L1349.25 6.25 L1353.75 6.25 L1354.00 6.50 L1355.50 6.50 L1356.75 7.25 L1357.75 7.50 L1358.50 8.25 L1359.25 8.50 L1360.75 10.00 L1362.50 12.50 L1363.00 13.50 L1363.00 14.00 L1363.75 15.00 L1363.75 16.25 L1364.00 16.50 L1364.25 18.25 L1365.00 19.00 L1366.25 18.75 L1366.50 18.25 L1366.50 16.50 L1366.25 16.25 L1366.50 13.50 L1366.25 13.25 L1366.25 12.25 L1366.00 12.00 L1366.00 8.75 L1365.75 8.50 L1365.25 6.50 L1363.00 5.25 L1362.50 5.25 L1361.50 4.75 L1360.50 4.75 Z M1251.25 11.25 L1246.75 15.75 L1244.25 19.50 L1243.00 22.00 L1242.75 23.50 L1242.00 24.75 L1242.00 25.50 L1241.75 25.75 L1241.75 27.50 L1241.25 28.50 L1241.25 30.00 L1241.00 30.25 L1241.00 35.75 L1241.25 36.00 L1241.25 37.50 L1241.75 38.50 L1241.75 40.75 L1242.75 42.75 L1242.75 44.25 L1243.50 45.00 L1244.25 47.00 L1244.75 47.50 L1245.75 49.50 L1246.50 50.25 L1246.75 51.00 L1250.00 54.50 L1250.25 54.50 L1251.75 56.00 L1254.50 58.00 L1259.00 60.25 L1260.25 60.50 L1262.25 61.50 L1263.50 61.50 L1264.75 62.25 L1266.00 62.25 L1266.25 62.50 L1269.50 62.50 L1270.25 63.00 L1279.25 63.00 L1280.00 62.50 L1284.00 62.50 L1284.25 62.25 L1287.00 62.00 L1287.75 61.50 L1291.75 61.25 L1292.50 60.75 L1293.25 60.75 L1293.50 60.50 L1294.75 60.25 L1295.25 59.50 L1295.25 57.50 L1294.50 55.50 L1294.50 44.75 L1295.00 44.00 L1295.25 42.50 L1296.00 41.50 L1296.50 41.50 L1296.75 41.25 L1298.75 41.25 L1299.50 40.50 L1299.50 39.50 L1299.25 39.00 L1298.75 38.75 L1296.00 38.75 L1295.75 39.00 L1284.25 39.00 L1284.00 38.75 L1278.00 38.75 L1277.25 39.25 L1277.25 40.25 L1278.25 41.25 L1283.00 41.25 L1283.25 41.50 L1284.75 41.50 L1286.25 42.25 L1287.50 43.50 L1287.75 44.00 L1287.75 45.75 L1288.00 46.00 L1288.00 53.00 L1287.75 53.25 L1287.75 54.75 L1286.50 57.25 L1285.00 58.75 L1283.50 59.75 L1280.75 60.25 L1279.75 60.75 L1273.00 60.75 L1271.00 60.00 L1268.00 59.75 L1266.50 58.75 L1265.00 58.50 L1264.50 58.00 L1264.00 58.00 L1263.00 57.50 L1259.00 54.75 L1256.25 52.00 L1254.25 49.00 L1253.50 48.25 L1251.50 44.25 L1251.25 43.00 L1250.50 41.50 L1250.25 39.50 L1249.50 37.75 L1249.50 35.50 L1249.25 35.25 L1249.25 28.00 L1249.50 27.75 L1249.50 25.50 L1250.25 24.00 L1250.50 22.00 L1251.25 21.00 L1251.50 19.75 L1252.00 19.25 L1252.75 17.50 L1254.25 15.25 L1255.25 14.50 L1255.50 14.00 L1256.25 13.50 L1258.00 11.50 L1260.50 9.75 L1263.00 8.50 L1263.50 8.50 L1265.00 7.50 L1267.25 7.50 L1268.50 6.50 L1271.00 6.50 L1271.25 6.25 L1276.50 6.25 L1276.75 6.50 L1279.25 6.50 L1280.50 7.25 L1282.25 7.50 L1286.50 10.25 L1288.50 12.25 L1290.25 14.75 L1291.75 17.75 L1291.75 18.25 L1292.75 20.75 L1293.50 21.25 L1294.00 21.25 L1294.50 20.75 L1294.50 16.25 L1294.25 16.00 L1294.25 13.75 L1294.00 13.50 L1294.00 11.75 L1293.50 10.75 L1293.50 8.50 L1293.25 8.00 L1292.25 7.00 L1290.25 6.00 L1288.75 5.75 L1287.50 5.00 L1286.75 5.00 L1286.50 4.75 L1284.75 4.75 L1284.00 4.25 L1283.00 4.25 L1282.75 4.00 L1280.75 4.00 L1280.50 3.75 L1271.25 3.75 L1271.00 4.00 L1268.75 4.00 L1266.75 4.75 L1265.00 4.75 L1262.50 5.75 L1260.75 6.00 L1259.50 6.75 L1258.25 7.00 L1257.75 7.50 L1256.25 8.00 Z M830.75 3.75 L829.25 4.75 L827.25 4.75 L825.25 5.75 L823.50 6.00 L823.00 6.50 L821.75 6.75 L820.75 7.50 L819.75 7.75 L818.75 8.50 L817.50 9.00 L816.75 9.75 L814.00 11.50 L810.50 15.00 L809.75 16.25 L808.75 17.25 L807.50 19.75 L807.00 20.25 L806.50 21.75 L806.00 22.25 L805.75 23.75 L805.25 24.50 L805.00 26.00 L804.75 26.25 L804.75 28.50 L804.25 29.50 L804.25 37.00 L804.75 38.00 L804.75 40.50 L805.00 40.75 L805.00 41.50 L805.75 42.75 L805.75 43.75 L806.75 45.75 L806.75 46.25 L809.50 51.25 L815.25 57.25 L816.25 57.75 L817.00 58.50 L822.50 61.25 L824.25 61.50 L825.50 62.25 L826.25 62.25 L826.50 62.50 L829.25 62.50 L830.00 63.00 L837.25 63.00 L838.00 62.50 L841.25 62.50 L842.75 61.75 L844.50 61.50 L846.50 60.50 L847.75 60.25 L848.25 59.75 L849.25 59.50 L850.25 58.75 L851.50 58.25 L852.00 57.75 L852.75 57.50 L853.75 56.50 L854.50 56.25 L859.25 52.00 L863.00 46.25 L864.50 43.25 L864.50 42.50 L865.25 41.25 L865.25 40.50 L865.50 40.25 L865.50 38.50 L866.25 36.75 L866.25 28.50 L865.50 27.25 L865.50 25.00 L865.25 24.75 L865.25 24.25 L864.50 23.25 L864.25 21.50 L862.25 17.50 L860.50 15.25 L860.25 14.50 L858.75 13.00 L858.75 12.75 L855.50 9.75 L853.50 8.50 L852.75 7.75 L848.75 5.75 L848.00 5.75 L847.00 5.00 L844.75 4.75 L842.75 4.00 L841.25 4.00 L841.00 3.75 Z M826.50 7.50 L829.50 7.25 L829.75 7.00 L831.25 7.00 L832.00 6.50 L833.75 6.50 L834.75 7.00 L836.50 7.00 L836.75 7.25 L838.25 7.25 L838.50 7.50 L840.25 7.50 L841.25 8.25 L842.75 8.50 L845.25 9.75 L848.25 11.75 L851.00 14.25 L854.25 18.75 L855.75 21.75 L856.00 23.00 L856.75 24.00 L857.00 26.00 L857.75 27.50 L857.75 29.75 L858.00 30.00 L858.00 32.25 L858.25 32.50 L858.25 38.25 L858.00 38.50 L857.75 42.75 L857.00 44.25 L856.75 46.25 L856.25 46.75 L854.75 50.25 L852.50 53.25 L850.25 55.50 L847.75 57.25 L844.75 58.75 L843.25 59.00 L842.25 59.75 L840.00 59.75 L839.75 60.00 L834.00 60.00 L833.75 59.75 L831.75 59.75 L831.00 59.25 L828.75 58.75 L824.75 56.75 L824.00 56.00 L823.00 55.50 L821.50 54.00 L821.25 54.00 L818.75 51.25 L818.25 50.25 L817.50 49.50 L816.50 47.50 L815.75 46.75 L815.25 45.00 L814.50 43.75 L814.25 42.25 L813.50 41.25 L813.25 38.50 L812.50 37.25 L812.50 33.75 L812.25 33.50 L812.25 31.00 L812.50 30.75 L812.50 29.50 L812.25 29.25 L812.50 23.75 L813.25 22.25 L813.50 20.00 L814.25 19.25 L814.50 18.00 L815.50 16.00 L817.75 13.00 L819.25 11.50 L819.50 11.50 L821.50 9.75 L822.75 9.25 L823.25 8.75 L825.25 8.25 Z M781.75 3.75 L774.00 3.75 L773.75 4.00 L772.50 4.00 L771.25 4.75 L770.00 4.75 L769.75 5.00 L769.25 5.00 L768.25 5.75 L767.25 6.00 L766.75 6.50 L765.50 7.00 L762.00 10.50 L761.75 11.25 L761.00 12.00 L760.75 13.75 L760.00 15.50 L760.00 21.25 L760.75 22.75 L760.75 23.75 L761.75 25.75 L762.75 26.75 L762.75 27.00 L766.75 30.75 L768.25 31.50 L769.25 32.50 L771.25 33.50 L772.00 34.25 L776.25 36.50 L777.25 37.50 L779.25 38.50 L780.50 39.75 L780.75 39.75 L782.75 41.75 L782.75 42.00 L784.50 44.00 L785.75 46.50 L785.75 48.00 L786.00 48.25 L786.00 50.25 L786.25 50.50 L786.25 51.25 L786.00 51.50 L786.00 53.25 L785.75 53.50 L785.75 54.50 L784.50 56.75 L782.75 58.50 L780.50 59.75 L778.75 60.00 L777.25 60.75 L774.00 60.75 L772.75 60.00 L771.75 60.00 L771.50 59.75 L770.25 59.50 L769.75 59.00 L768.50 58.50 L765.75 56.25 L764.50 54.25 L763.50 53.25 L762.50 51.25 L762.50 50.75 L761.50 49.25 L761.50 48.00 L760.50 46.25 L760.50 45.25 L760.00 44.75 L758.75 44.75 L758.25 45.25 L758.25 46.25 L758.75 47.00 L758.75 51.75 L759.00 52.00 L759.00 54.75 L759.25 55.00 L759.25 56.50 L759.75 57.50 L759.75 59.00 L761.00 60.25 L762.25 60.50 L763.75 61.50 L764.75 61.50 L766.00 62.25 L766.75 62.25 L767.00 62.50 L769.50 62.50 L770.25 63.00 L777.25 63.00 L778.00 62.50 L780.50 62.50 L780.75 62.25 L781.50 62.25 L787.00 59.50 L790.50 56.00 L792.50 52.00 L792.50 50.75 L793.00 49.75 L793.00 44.50 L792.50 43.50 L792.25 41.75 L790.75 39.00 L787.75 35.75 L787.50 35.75 L785.50 34.00 L784.75 33.75 L783.25 32.50 L779.50 30.50 L779.00 30.00 L778.00 29.75 L777.25 29.00 L775.00 27.75 L772.75 26.00 L772.00 25.75 L768.50 22.25 L767.25 20.00 L767.25 19.50 L766.50 18.50 L766.50 13.00 L767.25 12.00 L767.50 10.75 L768.75 9.00 L770.50 7.50 L772.50 6.50 L773.50 6.50 L773.75 6.25 L778.50 6.25 L778.75 6.50 L779.25 6.50 L780.25 7.25 L781.25 7.25 L782.25 7.75 L784.50 9.50 L784.50 9.75 L785.75 11.00 L787.75 14.75 L788.00 16.50 L788.50 17.25 L788.75 18.50 L789.25 19.00 L790.00 19.00 L790.50 18.50 L790.50 12.00 L790.25 11.75 L790.25 7.75 L789.75 6.75 L789.00 6.00 L787.75 5.75 L786.75 5.00 L784.75 4.75 L784.50 4.50 L782.00 4.00 Z M516.00 4.00 L514.50 4.00 L514.25 3.75 L507.50 3.75 L507.25 4.00 L505.75 4.00 L504.50 4.75 L503.25 4.75 L503.00 5.00 L502.50 5.00 L500.00 6.25 L497.75 7.75 L495.75 9.75 L493.75 13.25 L493.75 14.50 L493.25 15.25 L493.25 16.50 L493.00 16.75 L493.00 19.75 L493.25 20.00 L493.25 21.25 L493.75 22.00 L493.75 23.25 L494.00 23.50 L494.00 24.00 L494.50 24.50 L495.50 26.50 L499.25 30.25 L506.00 34.75 L507.75 35.50 L509.00 36.50 L509.75 36.75 L510.50 37.50 L511.25 37.75 L512.00 38.50 L513.00 39.00 L514.25 40.25 L514.50 40.25 L517.75 44.00 L518.00 45.00 L518.75 46.00 L519.00 48.50 L519.25 48.75 L519.25 49.25 L519.00 49.50 L519.25 52.75 L519.00 53.00 L518.75 55.25 L517.50 57.00 L516.00 58.50 L513.75 59.75 L512.00 60.00 L510.50 60.75 L507.50 60.75 L506.50 60.25 L504.00 59.75 L502.00 58.75 L500.25 57.50 L498.75 56.00 L495.50 51.25 L495.50 50.75 L494.50 48.75 L494.50 48.00 L493.75 46.50 L493.50 45.25 L493.00 44.75 L492.25 44.75 L491.75 45.25 L491.75 50.25 L492.00 50.50 L492.25 55.00 L492.75 56.00 L492.75 58.75 L493.00 59.25 L494.25 60.25 L495.25 60.50 L496.50 61.25 L498.50 61.75 L499.25 62.25 L500.25 62.25 L500.50 62.50 L502.50 62.50 L503.50 63.00 L510.25 63.00 L511.00 62.50 L513.50 62.50 L513.75 62.25 L514.50 62.25 L515.75 61.50 L517.00 61.25 L517.50 60.75 L519.25 60.00 L520.75 59.00 L523.25 56.50 L523.50 55.75 L524.25 55.00 L524.75 53.50 L525.50 52.50 L525.50 51.50 L526.25 49.50 L526.25 44.75 L526.00 44.50 L526.00 43.75 L525.50 42.75 L525.25 41.25 L524.75 40.75 L523.50 38.50 L520.00 35.00 L517.75 33.75 L515.50 32.00 L512.50 30.50 L511.75 29.75 L510.50 29.25 L509.25 28.25 L508.00 27.75 L504.00 24.75 L502.25 23.00 L501.75 22.00 L500.50 20.50 L500.00 18.50 L499.50 17.75 L499.50 13.75 L500.25 12.25 L500.50 11.00 L501.75 9.25 L503.25 7.75 L505.50 6.50 L506.50 6.50 L506.75 6.25 L508.75 6.25 L509.25 6.00 L509.50 6.25 L513.25 6.50 L514.25 7.25 L515.25 7.50 L516.25 8.50 L516.50 8.50 L519.50 12.00 L519.75 12.75 L520.50 13.50 L520.75 14.75 L521.00 15.00 L521.00 15.75 L521.75 17.00 L521.75 18.25 L522.00 18.75 L523.25 19.00 L523.75 18.50 L523.75 17.50 L523.50 17.25 L523.50 8.00 L523.25 7.75 L523.25 7.25 L521.50 5.75 L521.00 5.75 L519.00 4.75 L517.75 4.75 Z M435.25 3.75 L433.25 4.75 L432.00 4.75 L431.75 5.00 L431.25 5.00 L430.75 5.50 L429.75 5.75 L428.75 6.50 L427.50 7.00 L426.50 7.75 L424.00 10.50 L423.50 11.75 L422.75 12.75 L422.75 13.50 L421.75 16.00 L422.00 21.50 L422.75 22.75 L422.75 23.75 L424.00 26.00 L428.00 30.25 L429.00 31.00 L430.25 31.50 L431.00 32.25 L433.25 33.50 L434.00 34.25 L438.25 36.50 L439.00 37.25 L440.00 37.75 L441.75 39.25 L442.75 39.75 L445.75 43.00 L446.00 44.25 L447.50 46.00 L447.75 47.75 L448.00 48.00 L448.00 53.25 L447.75 53.50 L447.75 54.50 L446.50 56.75 L444.00 59.00 L441.75 60.00 L440.75 60.00 L439.50 60.75 L436.00 60.75 L434.50 60.00 L432.75 59.75 L430.75 58.75 L429.00 57.50 L427.50 56.00 L426.75 54.75 L425.75 53.75 L424.25 51.00 L424.25 50.50 L423.50 49.25 L423.00 47.25 L422.50 46.50 L422.50 45.50 L422.25 45.00 L421.75 44.75 L420.50 45.00 L420.25 45.25 L420.25 46.75 L420.75 47.75 L420.75 52.50 L421.00 52.75 L421.25 57.00 L421.75 57.75 L421.75 59.25 L422.75 60.25 L424.25 60.50 L425.25 61.25 L426.75 61.50 L427.75 62.25 L428.25 62.25 L428.50 62.50 L431.50 62.50 L432.25 63.00 L439.25 63.00 L440.00 62.50 L442.25 62.50 L442.50 62.25 L443.25 62.25 L444.00 61.75 L445.25 61.50 L448.50 59.75 L451.75 56.75 L453.00 55.00 L454.50 51.75 L454.50 50.00 L455.00 49.25 L455.00 45.00 L454.50 44.25 L454.50 42.50 L454.25 42.25 L454.25 41.75 L452.50 38.75 L448.50 34.75 L442.00 30.75 L441.50 30.00 L441.00 29.75 L440.00 29.75 L432.75 24.75 L430.25 22.00 L428.50 18.50 L428.50 12.75 L429.25 11.75 L429.25 11.25 L430.50 9.25 L432.00 7.75 L432.75 7.50 L434.00 6.50 L435.25 6.50 L435.50 6.25 L440.50 6.25 L440.75 6.50 L441.75 6.50 L443.00 7.00 L443.50 7.50 L445.75 8.75 L446.50 9.50 L446.50 9.75 L447.75 11.00 L449.75 14.75 L450.00 16.50 L450.75 18.00 L450.75 18.50 L451.25 19.00 L452.00 19.00 L452.50 18.50 L452.50 13.00 L452.25 12.75 L452.25 8.75 L452.00 8.50 L452.00 7.50 L451.25 6.25 L450.25 5.75 L449.75 5.75 L448.00 4.75 L446.50 4.75 L444.75 4.00 L443.00 4.00 L442.75 3.75 Z M134.50 3.75 L134.00 4.25 L133.75 5.25 L132.75 6.75 L132.75 7.50 L132.25 8.00 L132.00 9.00 L131.00 10.75 L130.75 12.25 L130.00 13.00 L129.75 14.50 L129.25 15.00 L129.00 16.00 L128.00 17.75 L127.75 19.25 L127.00 20.25 L126.75 21.50 L126.25 22.00 L126.00 23.00 L125.00 24.75 L124.75 26.25 L124.00 27.25 L123.75 28.25 L122.75 30.00 L122.75 30.50 L122.00 31.75 L122.00 32.25 L120.75 34.75 L120.75 35.25 L118.75 39.25 L118.75 39.75 L117.75 41.75 L117.75 42.25 L116.75 44.00 L116.50 45.00 L115.75 46.00 L115.00 48.50 L114.50 49.50 L114.00 49.75 L113.75 50.25 L113.75 51.25 L113.00 52.25 L112.75 53.50 L110.75 56.50 L108.50 58.75 L106.50 59.75 L104.00 59.75 L103.00 60.75 L103.00 61.25 L104.00 62.00 L108.00 62.00 L108.75 61.50 L119.75 61.50 L120.75 62.00 L125.00 62.00 L125.50 61.25 L125.50 60.25 L124.75 59.75 L121.00 59.75 L119.25 58.75 L118.25 58.50 L117.25 57.50 L116.50 56.25 L116.50 53.00 L117.50 51.25 L117.50 50.50 L118.50 48.50 L118.50 47.75 L119.00 47.25 L119.50 46.25 L119.50 45.75 L120.25 44.75 L120.50 43.50 L121.25 42.25 L121.50 41.00 L122.25 40.00 L122.75 38.25 L124.00 37.25 L143.75 37.25 L144.75 38.00 L145.25 39.25 L145.75 39.75 L145.75 40.25 L146.75 42.00 L146.75 42.50 L147.50 43.50 L147.75 44.50 L148.50 45.50 L148.75 46.50 L149.75 48.00 L150.00 49.25 L152.75 54.50 L153.00 56.00 L153.50 56.75 L153.50 58.00 L151.75 59.50 L151.25 59.75 L147.50 59.75 L147.00 60.00 L146.75 60.50 L147.00 61.75 L147.50 62.00 L151.25 62.00 L152.00 61.50 L162.50 61.50 L163.50 62.00 L168.00 62.00 L168.50 61.25 L168.25 60.00 L167.75 59.75 L166.00 59.75 L164.25 58.75 L162.50 57.00 L160.50 54.25 L157.50 48.50 L157.50 48.00 L157.00 47.00 L156.50 46.50 L156.50 46.00 L156.00 45.00 L155.50 44.50 L155.50 44.00 L155.00 43.00 L154.50 42.50 L154.50 41.75 L153.75 40.75 L153.50 39.75 L152.75 38.75 L152.50 37.75 L151.50 36.25 L151.50 35.75 L150.75 34.50 L150.75 34.00 L147.50 27.75 L147.50 27.25 L144.25 21.00 L144.25 20.50 L143.50 19.50 L143.50 19.00 L142.50 17.50 L142.50 17.00 L142.00 16.00 L141.50 15.50 L141.50 15.00 L140.50 13.25 L140.50 12.75 L139.75 11.75 L139.50 10.75 L138.75 9.75 L138.50 8.75 L137.50 7.25 L137.50 6.50 L136.50 4.50 L135.75 3.75 Z M133.00 15.00 L133.50 15.00 L134.50 16.50 L134.75 17.50 L135.50 18.50 L135.75 19.50 L136.75 21.00 L136.75 21.50 L137.75 23.25 L137.75 23.75 L142.25 32.75 L142.25 33.25 L142.50 33.50 L141.75 34.25 L125.50 34.25 L125.00 33.50 L125.50 31.75 L127.25 28.25 L127.50 27.00 L128.25 26.00 L128.50 24.75 L130.25 21.25 L130.50 20.00 L131.25 19.00 L131.50 17.75 L132.50 16.00 L132.50 15.50 Z M1058.00 2.25 L1057.00 2.00 L1056.25 2.50 L1056.25 2.75 L1055.00 4.00 L1053.50 4.75 L1038.75 4.75 L1038.50 5.00 L1011.75 4.75 L1010.25 4.00 L1009.25 3.00 L1009.25 2.75 L1008.50 2.25 L1007.50 2.75 L1007.25 3.25 L1007.25 6.50 L1007.00 6.75 L1007.00 10.25 L1006.75 10.50 L1006.75 15.50 L1006.25 16.25 L1006.25 18.00 L1006.00 18.25 L1006.00 19.50 L1006.25 20.00 L1006.75 20.25 L1007.50 20.25 L1008.25 19.50 L1008.25 18.75 L1008.50 18.50 L1008.50 16.75 L1009.25 15.50 L1009.50 14.00 L1010.25 13.00 L1010.50 12.00 L1011.50 11.00 L1011.50 10.75 L1014.00 8.50 L1015.25 8.25 L1016.75 7.50 L1026.25 7.50 L1027.25 8.00 L1028.75 10.00 L1028.75 56.50 L1028.00 57.50 L1027.75 58.25 L1025.50 59.75 L1020.25 59.75 L1019.75 60.25 L1019.75 61.25 L1020.25 62.00 L1027.25 62.00 L1028.00 61.50 L1036.50 61.50 L1037.25 62.00 L1044.00 62.00 L1044.75 61.50 L1044.75 60.25 L1044.00 59.75 L1039.00 59.75 L1038.00 59.00 L1037.00 58.75 L1036.25 57.75 L1036.25 56.75 L1035.50 55.25 L1035.50 11.75 L1036.00 10.75 L1036.25 9.25 L1037.50 8.00 L1038.50 7.50 L1047.75 7.50 L1049.25 8.25 L1050.50 8.50 L1052.00 9.50 L1053.75 11.75 L1053.75 12.25 L1054.75 14.00 L1054.75 15.75 L1055.00 16.00 L1055.25 19.25 L1056.00 20.25 L1056.75 20.25 L1057.25 20.00 L1057.25 19.50 L1057.50 19.25 L1057.50 9.50 L1058.00 8.50 L1058.00 5.75 L1058.25 5.50 L1058.25 2.75 Z M587.75 2.00 L587.00 2.25 L585.75 3.75 L583.50 4.75 L568.75 4.75 L568.50 5.00 L541.75 4.75 L540.75 4.00 L540.00 3.75 L539.50 3.25 L539.25 2.50 L538.75 2.25 L538.00 2.50 L537.75 3.00 L537.75 7.50 L537.25 8.25 L537.00 13.25 L536.75 13.50 L536.75 18.25 L536.50 18.50 L536.50 19.75 L537.00 20.25 L537.75 20.25 L538.50 19.25 L538.50 17.75 L539.25 16.50 L539.50 14.75 L541.50 11.00 L543.00 9.50 L545.25 8.25 L545.75 8.25 L546.75 7.50 L556.50 7.50 L557.75 8.25 L558.75 9.50 L558.75 10.75 L559.00 11.00 L559.00 55.50 L558.75 55.75 L558.75 57.50 L557.50 58.75 L555.50 59.75 L550.75 59.75 L550.25 60.00 L549.75 60.75 L549.75 61.25 L550.50 62.00 L557.50 62.00 L558.50 61.50 L566.50 61.50 L567.50 62.00 L574.50 62.00 L575.25 61.25 L575.25 60.50 L574.25 59.75 L569.50 59.75 L569.25 59.50 L568.75 59.50 L566.75 58.00 L566.50 56.75 L566.25 56.50 L566.25 54.75 L566.00 54.50 L566.00 12.50 L566.25 12.25 L566.25 10.00 L566.50 9.75 L566.50 9.00 L568.75 7.50 L578.50 7.50 L580.00 8.50 L580.75 8.50 L582.75 10.00 L584.25 12.25 L584.75 13.50 L584.75 14.25 L585.00 14.50 L585.25 16.75 L585.75 17.75 L585.75 19.75 L586.25 20.25 L587.00 20.25 L587.50 19.75 L587.50 16.75 L588.00 15.75 L588.00 10.25 L588.25 10.00 L588.25 6.50 L588.50 6.25 L588.50 3.00 Z M294.00 2.00 L293.25 2.00 L292.00 3.75 L289.75 4.75 L275.25 4.75 L275.00 5.00 L248.00 4.75 L246.75 4.00 L245.00 2.25 L244.50 2.25 L243.75 3.00 L243.75 9.75 L243.25 10.75 L243.00 15.50 L242.75 15.75 L242.75 19.75 L243.25 20.25 L244.00 20.25 L244.50 19.50 L244.50 18.75 L245.25 17.25 L245.50 15.50 L246.50 13.50 L246.75 12.50 L247.50 11.75 L247.75 11.00 L249.25 9.50 L250.75 8.50 L252.00 8.25 L253.00 7.50 L262.75 7.50 L264.00 8.25 L264.75 9.00 L264.75 9.50 L265.00 9.75 L265.00 11.75 L265.25 12.00 L265.25 51.25 L265.00 51.50 L265.00 52.00 L265.25 52.25 L265.25 54.75 L265.00 55.00 L265.00 56.75 L264.50 58.00 L262.50 59.50 L262.00 59.50 L261.75 59.75 L257.00 59.75 L256.75 60.00 L256.25 60.00 L256.00 61.25 L257.00 62.00 L263.75 62.00 L264.75 61.50 L272.75 61.50 L273.75 62.00 L280.75 62.00 L281.50 61.00 L281.25 60.75 L281.25 60.25 L280.50 59.75 L275.75 59.75 L273.75 58.75 L272.50 57.25 L272.50 55.75 L272.25 55.50 L272.25 11.50 L272.50 11.25 L272.50 9.50 L273.25 8.50 L275.00 7.50 L284.50 7.50 L285.75 8.25 L286.25 8.25 L287.75 9.00 L289.75 11.00 L290.25 12.25 L290.75 12.75 L291.00 14.75 L291.75 16.50 L291.75 19.25 L292.00 19.50 L292.00 20.00 L293.25 20.25 L294.00 19.25 L294.25 8.75 L294.50 8.50 L294.50 2.50 Z"/></svg>